<svg xmlns="http://www.w3.org/2000/svg" role="img" aria-labelledby="title desc" viewBox="0 0 720 600">
<title id="title">MIND 教学结构图</title><desc id="desc">训练时由目标物品选择兴趣，推理时每个兴趣独立召回。</desc>
<style>rect{fill:#18201b;stroke:#91c940;stroke-width:2}circle{fill:#91c940}text{fill:#edf4ee;font:650 20px system-ui;text-anchor:middle}.number{fill:#102015;font-size:17px;font-weight:850}path{fill:none;stroke:#91c940;stroke-width:3}.caption{fill:#9aa79d;font-size:15px;font-weight:400;text-anchor:start}</style>
<rect width="720" height="600" rx="16" fill="#0f1511" stroke="#2d3930"/><path d="M360 114 V134"/><path d="M352 126 L360 134 L368 126"/><path d="M360 202 V222"/><path d="M352 214 L360 222 L368 214"/><path d="M360 290 V310"/><path d="M352 302 L360 310 L368 302"/><path d="M360 378 V398"/><path d="M352 390 L360 398 L368 390"/><rect x="50" y="54" width="620" height="62" rx="13"/><circle cx="82" cy="85.0" r="17"/><text class="number" x="82" y="91.0">1</text><text x="370.0" y="92.0">行为序列</text><rect x="50" y="142" width="620" height="62" rx="13"/><circle cx="82" cy="173.0" r="17"/><text class="number" x="82" y="179.0">2</text><text x="370.0" y="180.0">动态路由</text><rect x="50" y="230" width="620" height="62" rx="13"/><circle cx="82" cy="261.0" r="17"/><text class="number" x="82" y="267.0">3</text><text x="370.0" y="268.0">K 个兴趣向量</text><rect x="50" y="318" width="620" height="62" rx="13"/><circle cx="82" cy="349.0" r="17"/><text class="number" x="82" y="355.0">4</text><text x="370.0" y="356.0">多路 ANN</text><rect x="50" y="406" width="620" height="62" rx="13"/><circle cx="82" cy="437.0" r="17"/><text class="number" x="82" y="443.0">5</text><text x="370.0" y="444.0">合并去重</text>
<text class="caption" x="50" y="566">原创示意图 · 训练时由目标物品选择兴趣，推理时每个兴趣独立召回。</text></svg>